# xmcd CD database file
#
# Track frame offsets:
#	150
#	22791
#	43041
#	63290
#	86916
#	109415
#	135290
#	155539
#	175789
#	192664
#	214039
#	234219
#	246595
#
# Disc length: 3564 seconds
#
# Revision: 0
# Processed by: cddbd v1.5.2PL0 Copyright (c) Steve Scherf et al.
# Submitted via: CDex 1.51
#
DISCID=ae0dea0d
DTITLE=Power Music - 17 Again Powermix Vol 5 Country Rocks
DYEAR=2009
DGENRE=Country
TTITLE0=Swingtown
TTITLE1=All I Want To Do
TTITLE2=Red High Heels
TTITLE3=Hitchin' A Ride
TTITLE4=Shut Up And Kiss Me
TTITLE5=I Like It I Love It
TTITLE6=You Can't Take The Honky Tonk Out Of The Girl
TTITLE7=All Summer Long
TTITLE8=Boot Scootin' Boogie
TTITLE9=That Don't Impress Me Much
TTITLE10=The Gambler
TTITLE11=King Of The Road
TTITLE12=Love Story
EXTD=YEAR: 2009
EXTT0=
EXTT1=
EXTT2=
EXTT3=
EXTT4=
EXTT5=
EXTT6=
EXTT7=
EXTT8=
EXTT9=
EXTT10=
EXTT11=
EXTT12=
PLAYORDER=
